<mxfile host="app.diagrams.net" modified="2024-03-22T13:43:53.007Z" agent="Mozilla/5.0 (Windows NT 10.0; Win64; x64) AppleWebKit/537.36 (KHTML, like Gecko) Chrome/122.0.0.0 Safari/537.36" etag="cbx3KkX4CP3XgfYZFUTh" version="24.0.8" type="device">
  <diagram name="Page-1" id="41Xm8jwZwZj4rNR2arKd">
    <mxGraphModel dx="1440" dy="675" grid="0" gridSize="10" guides="1" tooltips="1" connect="1" arrows="1" fold="1" page="0" pageScale="1" pageWidth="850" pageHeight="1100" math="0" shadow="0">
      <root>
        <mxCell id="0" />
        <mxCell id="1" parent="0" />
        <mxCell id="swBH98palAouhRf8rfyv-22" style="edgeStyle=none;curved=0;rounded=0;orthogonalLoop=1;jettySize=auto;html=1;exitX=1;exitY=0.5;exitDx=0;exitDy=0;entryX=0;entryY=0.5;entryDx=0;entryDy=0;strokeColor=default;align=center;verticalAlign=middle;fontFamily=Helvetica;fontSize=12;fontColor=default;labelBackgroundColor=default;startArrow=none;startFill=0;startSize=8;endArrow=none;endFill=0;endSize=8;" edge="1" parent="1" source="swBH98palAouhRf8rfyv-1" target="swBH98palAouhRf8rfyv-21">
          <mxGeometry relative="1" as="geometry" />
        </mxCell>
        <mxCell id="swBH98palAouhRf8rfyv-24" value="1" style="edgeLabel;html=1;align=center;verticalAlign=middle;resizable=0;points=[];fontSize=12;fontFamily=Helvetica;fontColor=default;labelBackgroundColor=default;" vertex="1" connectable="0" parent="swBH98palAouhRf8rfyv-22">
          <mxGeometry x="-0.7936" relative="1" as="geometry">
            <mxPoint as="offset" />
          </mxGeometry>
        </mxCell>
        <mxCell id="swBH98palAouhRf8rfyv-1" value="usuarios" style="rounded=0;whiteSpace=wrap;html=1;" vertex="1" parent="1">
          <mxGeometry x="92" y="60" width="120" height="60" as="geometry" />
        </mxCell>
        <mxCell id="swBH98palAouhRf8rfyv-2" value="id_usuarios" style="ellipse;whiteSpace=wrap;html=1;" vertex="1" parent="1">
          <mxGeometry x="21" y="213" width="120" height="80" as="geometry" />
        </mxCell>
        <mxCell id="swBH98palAouhRf8rfyv-3" value="nome" style="ellipse;whiteSpace=wrap;html=1;" vertex="1" parent="1">
          <mxGeometry x="169" y="213" width="120" height="80" as="geometry" />
        </mxCell>
        <mxCell id="swBH98palAouhRf8rfyv-15" style="edgeStyle=none;curved=0;rounded=0;orthogonalLoop=1;jettySize=auto;html=1;exitX=0;exitY=0;exitDx=0;exitDy=0;entryX=1;entryY=1;entryDx=0;entryDy=0;strokeColor=default;align=center;verticalAlign=middle;fontFamily=Helvetica;fontSize=12;fontColor=default;labelBackgroundColor=default;startArrow=none;startFill=0;startSize=8;endArrow=none;endFill=0;endSize=8;" edge="1" parent="1" source="swBH98palAouhRf8rfyv-4" target="swBH98palAouhRf8rfyv-1">
          <mxGeometry relative="1" as="geometry" />
        </mxCell>
        <mxCell id="swBH98palAouhRf8rfyv-4" value="email" style="ellipse;whiteSpace=wrap;html=1;" vertex="1" parent="1">
          <mxGeometry x="320" y="209" width="120" height="80" as="geometry" />
        </mxCell>
        <mxCell id="swBH98palAouhRf8rfyv-12" style="edgeStyle=none;curved=0;rounded=0;orthogonalLoop=1;jettySize=auto;html=1;exitX=1;exitY=0;exitDx=0;exitDy=0;entryX=0;entryY=1;entryDx=0;entryDy=0;fontSize=12;startSize=8;endSize=8;startArrow=none;startFill=0;endArrow=none;endFill=0;" edge="1" parent="1" source="swBH98palAouhRf8rfyv-5" target="swBH98palAouhRf8rfyv-1">
          <mxGeometry relative="1" as="geometry" />
        </mxCell>
        <mxCell id="swBH98palAouhRf8rfyv-5" value="senha" style="ellipse;whiteSpace=wrap;html=1;" vertex="1" parent="1">
          <mxGeometry x="-115" y="213" width="120" height="80" as="geometry" />
        </mxCell>
        <mxCell id="swBH98palAouhRf8rfyv-6" value="tarefas" style="rounded=0;whiteSpace=wrap;html=1;" vertex="1" parent="1">
          <mxGeometry x="879" y="60" width="120" height="60" as="geometry" />
        </mxCell>
        <mxCell id="swBH98palAouhRf8rfyv-16" style="edgeStyle=none;curved=0;rounded=0;orthogonalLoop=1;jettySize=auto;html=1;exitX=1;exitY=0;exitDx=0;exitDy=0;entryX=0;entryY=1;entryDx=0;entryDy=0;strokeColor=default;align=center;verticalAlign=middle;fontFamily=Helvetica;fontSize=12;fontColor=default;labelBackgroundColor=default;startArrow=none;startFill=0;startSize=8;endArrow=none;endFill=0;endSize=8;" edge="1" parent="1" source="swBH98palAouhRf8rfyv-7" target="swBH98palAouhRf8rfyv-6">
          <mxGeometry relative="1" as="geometry" />
        </mxCell>
        <mxCell id="swBH98palAouhRf8rfyv-7" value="id_tarefas" style="ellipse;whiteSpace=wrap;html=1;" vertex="1" parent="1">
          <mxGeometry x="589" y="213" width="120" height="80" as="geometry" />
        </mxCell>
        <mxCell id="swBH98palAouhRf8rfyv-8" value="descrição" style="ellipse;whiteSpace=wrap;html=1;" vertex="1" parent="1">
          <mxGeometry x="736" y="213" width="120" height="80" as="geometry" />
        </mxCell>
        <mxCell id="swBH98palAouhRf8rfyv-9" value="data de vencimento" style="ellipse;whiteSpace=wrap;html=1;" vertex="1" parent="1">
          <mxGeometry x="1018" y="213" width="120" height="80" as="geometry" />
        </mxCell>
        <mxCell id="swBH98palAouhRf8rfyv-10" value="status" style="ellipse;whiteSpace=wrap;html=1;" vertex="1" parent="1">
          <mxGeometry x="875" y="213" width="120" height="80" as="geometry" />
        </mxCell>
        <mxCell id="swBH98palAouhRf8rfyv-20" style="edgeStyle=none;curved=0;rounded=0;orthogonalLoop=1;jettySize=auto;html=1;exitX=0;exitY=0;exitDx=0;exitDy=0;entryX=1;entryY=1;entryDx=0;entryDy=0;strokeColor=default;align=center;verticalAlign=middle;fontFamily=Helvetica;fontSize=12;fontColor=default;labelBackgroundColor=default;startArrow=none;startFill=0;startSize=8;endArrow=none;endFill=0;endSize=8;" edge="1" parent="1" source="swBH98palAouhRf8rfyv-11" target="swBH98palAouhRf8rfyv-6">
          <mxGeometry relative="1" as="geometry" />
        </mxCell>
        <mxCell id="swBH98palAouhRf8rfyv-11" value="&lt;u&gt;id_usuarios&lt;/u&gt;" style="ellipse;whiteSpace=wrap;html=1;" vertex="1" parent="1">
          <mxGeometry x="1154" y="209" width="120" height="80" as="geometry" />
        </mxCell>
        <mxCell id="swBH98palAouhRf8rfyv-13" style="edgeStyle=none;curved=0;rounded=0;orthogonalLoop=1;jettySize=auto;html=1;strokeColor=default;align=center;verticalAlign=middle;fontFamily=Helvetica;fontSize=12;fontColor=default;labelBackgroundColor=default;startArrow=none;startFill=0;startSize=8;endArrow=none;endFill=0;endSize=8;" edge="1" parent="1" target="swBH98palAouhRf8rfyv-1">
          <mxGeometry relative="1" as="geometry">
            <mxPoint x="75" y="218" as="sourcePoint" />
          </mxGeometry>
        </mxCell>
        <mxCell id="swBH98palAouhRf8rfyv-14" style="edgeStyle=none;curved=0;rounded=0;orthogonalLoop=1;jettySize=auto;html=1;exitX=0.5;exitY=0;exitDx=0;exitDy=0;entryX=0.64;entryY=1.003;entryDx=0;entryDy=0;entryPerimeter=0;strokeColor=default;align=center;verticalAlign=middle;fontFamily=Helvetica;fontSize=12;fontColor=default;labelBackgroundColor=default;startArrow=none;startFill=0;startSize=8;endArrow=none;endFill=0;endSize=8;" edge="1" parent="1" source="swBH98palAouhRf8rfyv-3" target="swBH98palAouhRf8rfyv-1">
          <mxGeometry relative="1" as="geometry" />
        </mxCell>
        <mxCell id="swBH98palAouhRf8rfyv-17" style="edgeStyle=none;curved=0;rounded=0;orthogonalLoop=1;jettySize=auto;html=1;exitX=1;exitY=0;exitDx=0;exitDy=0;entryX=0.148;entryY=0.99;entryDx=0;entryDy=0;entryPerimeter=0;strokeColor=default;align=center;verticalAlign=middle;fontFamily=Helvetica;fontSize=12;fontColor=default;labelBackgroundColor=default;startArrow=none;startFill=0;startSize=8;endArrow=none;endFill=0;endSize=8;" edge="1" parent="1" source="swBH98palAouhRf8rfyv-8" target="swBH98palAouhRf8rfyv-6">
          <mxGeometry relative="1" as="geometry" />
        </mxCell>
        <mxCell id="swBH98palAouhRf8rfyv-18" style="edgeStyle=none;curved=0;rounded=0;orthogonalLoop=1;jettySize=auto;html=1;exitX=0.5;exitY=0;exitDx=0;exitDy=0;entryX=0.442;entryY=0.977;entryDx=0;entryDy=0;entryPerimeter=0;strokeColor=default;align=center;verticalAlign=middle;fontFamily=Helvetica;fontSize=12;fontColor=default;labelBackgroundColor=default;startArrow=none;startFill=0;startSize=8;endArrow=none;endFill=0;endSize=8;" edge="1" parent="1" source="swBH98palAouhRf8rfyv-10" target="swBH98palAouhRf8rfyv-6">
          <mxGeometry relative="1" as="geometry" />
        </mxCell>
        <mxCell id="swBH98palAouhRf8rfyv-19" style="edgeStyle=none;curved=0;rounded=0;orthogonalLoop=1;jettySize=auto;html=1;exitX=0;exitY=0;exitDx=0;exitDy=0;entryX=0.855;entryY=0.99;entryDx=0;entryDy=0;entryPerimeter=0;strokeColor=default;align=center;verticalAlign=middle;fontFamily=Helvetica;fontSize=12;fontColor=default;labelBackgroundColor=default;startArrow=none;startFill=0;startSize=8;endArrow=none;endFill=0;endSize=8;" edge="1" parent="1" source="swBH98palAouhRf8rfyv-9" target="swBH98palAouhRf8rfyv-6">
          <mxGeometry relative="1" as="geometry" />
        </mxCell>
        <mxCell id="swBH98palAouhRf8rfyv-23" style="edgeStyle=none;curved=0;rounded=0;orthogonalLoop=1;jettySize=auto;html=1;exitX=1;exitY=0.5;exitDx=0;exitDy=0;strokeColor=default;align=center;verticalAlign=middle;fontFamily=Helvetica;fontSize=12;fontColor=default;labelBackgroundColor=default;startArrow=none;startFill=0;startSize=8;endArrow=none;endFill=0;endSize=8;" edge="1" parent="1" source="swBH98palAouhRf8rfyv-21" target="swBH98palAouhRf8rfyv-6">
          <mxGeometry relative="1" as="geometry" />
        </mxCell>
        <mxCell id="swBH98palAouhRf8rfyv-25" value="N" style="edgeLabel;html=1;align=center;verticalAlign=middle;resizable=0;points=[];fontSize=12;fontFamily=Helvetica;fontColor=default;labelBackgroundColor=default;" vertex="1" connectable="0" parent="swBH98palAouhRf8rfyv-23">
          <mxGeometry x="0.8271" y="-1" relative="1" as="geometry">
            <mxPoint as="offset" />
          </mxGeometry>
        </mxCell>
        <mxCell id="swBH98palAouhRf8rfyv-21" value="possui" style="rhombus;whiteSpace=wrap;html=1;fontFamily=Helvetica;fontSize=12;fontColor=default;labelBackgroundColor=default;" vertex="1" parent="1">
          <mxGeometry x="493" y="53" width="143" height="80" as="geometry" />
        </mxCell>
      </root>
    </mxGraphModel>
  </diagram>
</mxfile>
